<?xml version="1.0" encoding="utf-8" standalone="no"?>
<!DOCTYPE svg PUBLIC "-//W3C//DTD SVG 1.1//EN"
  "http://www.w3.org/Graphics/SVG/1.1/DTD/svg11.dtd">
<svg xmlns:xlink="http://www.w3.org/1999/xlink" width="449.28pt" height="334.08pt" viewBox="0 0 449.28 334.08" xmlns="http://www.w3.org/2000/svg" version="1.1">
 <metadata>
  <rdf:RDF xmlns:dc="http://purl.org/dc/elements/1.1/" xmlns:cc="http://creativecommons.org/ns#" xmlns:rdf="http://www.w3.org/1999/02/22-rdf-syntax-ns#">
   <cc:Work>
    <dc:type rdf:resource="http://purl.org/dc/dcmitype/StillImage"/>
    <dc:date>2025-08-05T17:26:35.975717</dc:date>
    <dc:format>image/svg+xml</dc:format>
    <dc:creator>
     <cc:Agent>
      <dc:title>Matplotlib v3.9.2, https://matplotlib.org/</dc:title>
     </cc:Agent>
    </dc:creator>
   </cc:Work>
  </rdf:RDF>
 </metadata>
 <defs>
  <style type="text/css">*{stroke-linejoin: round; stroke-linecap: butt}</style>
 </defs>
 <g id="figure_1">
  <g id="patch_1">
   <path d="M 0 334.08 
L 449.28 334.08 
L 449.28 0 
L 0 0 
z
" style="fill: #ffffff"/>
  </g>
  <g id="axes_1">
   <g id="PolyCollection_1"/>
   <g id="PolyCollection_2"/>
   <g id="PolyCollection_3"/>
   <g id="line2d_1">
    <path d="M 26.967273 296.709168 
L 32.186355 299.625312 
L 37.405437 302.209205 
L 42.624518 304.473176 
L 47.8436 306.42831 
L 53.062682 308.086224 
L 58.281764 309.458152 
L 63.500846 310.553225 
L 68.719928 311.381174 
L 73.93901 311.950148 
L 79.158092 312.26936 
L 84.377174 312.345912 
L 89.596256 312.187387 
L 94.815338 311.800756 
L 100.034419 311.192602 
L 105.253501 310.369091 
L 110.472583 309.336224 
L 115.691665 308.099666 
L 120.910747 306.664403 
L 126.129829 305.035679 
L 132.653681 302.735143 
L 139.177534 300.14891 
L 145.701386 297.285355 
L 152.225239 294.152965 
L 158.749091 290.75926 
L 165.272943 287.111598 
L 171.796796 283.217645 
L 178.320648 279.083839 
L 184.8445 274.717618 
L 192.673123 269.180402 
L 200.501746 263.329249 
L 208.330369 257.175812 
L 216.158992 250.732368 
L 223.987615 244.010069 
L 231.816238 237.022293 
L 240.949631 228.551327 
L 250.083024 219.758696 
L 259.216418 210.669169 
L 269.654581 199.954888 
L 281.397516 187.542253 
L 290.530909 177.676786 
L 291.83568 176.87614 
L 310.102466 157.129245 
L 328.369253 137.467325 
L 338.807417 126.570153 
L 346.63604 118.70818 
L 353.159892 112.441867 
L 359.683744 106.50603 
L 364.902826 102.043539 
L 370.121908 97.876797 
L 375.34099 94.044889 
L 379.255302 91.41328 
L 383.169613 89.005146 
L 387.083924 86.834364 
L 390.998236 84.910261 
L 394.912547 83.243874 
L 398.826859 81.84282 
L 402.74117 80.708681 
L 406.655482 79.847119 
L 410.569793 79.261073 
L 414.484104 78.956432 
L 418.398416 78.939908 
L 422.312727 79.22433 
L 422.312727 79.22433 
" clip-path="url(#p51768de75e)" style="fill: none; stroke: #1f78b4; stroke-width: 1.5; stroke-linecap: square"/>
   </g>
   <g id="line2d_2">
    <path d="M 26.967273 216.383661 
L 33.491125 214.993193 
L 40.014977 213.33176 
L 46.53883 211.411595 
L 53.062682 209.24333 
L 59.586535 206.839568 
L 66.110387 204.210073 
L 72.634239 201.361638 
L 80.462862 197.668262 
L 88.291485 193.68722 
L 96.120108 189.430324 
L 103.948731 184.908644 
L 105.253501 184.129701 
L 106.558272 192.952104 
L 113.082124 193.527097 
L 119.605977 193.865657 
L 126.129829 193.97829 
L 132.653681 193.871709 
L 139.177534 193.554481 
L 145.701386 193.033836 
L 152.225239 192.317568 
L 160.053861 191.210424 
L 167.882484 189.844032 
L 175.711107 188.230993 
L 183.53973 186.382425 
L 191.368353 184.310124 
L 200.501746 181.622295 
L 208.330369 179.102399 
L 217.463762 175.924472 
L 226.597156 172.504884 
L 235.730549 168.861612 
L 246.168713 164.445933 
L 256.606877 159.786979 
L 268.349811 154.289991 
L 281.397516 147.916548 
L 290.530909 143.324271 
L 291.83568 147.842562 
L 307.492925 139.849399 
L 341.416958 122.40112 
L 351.855122 117.33551 
L 359.683744 113.762819 
L 366.207597 110.989983 
L 372.731449 108.452773 
L 377.950531 106.628732 
L 383.169613 105.018275 
L 388.388695 103.651527 
L 393.607777 102.558471 
L 397.522088 101.93615 
L 401.4364 101.492299 
L 405.350711 101.240424 
L 409.265023 101.189239 
L 413.179334 101.344424 
L 417.093645 101.712498 
L 421.007957 102.307096 
L 422.312727 102.559972 
L 422.312727 102.559972 
" clip-path="url(#p51768de75e)" style="fill: none; stroke: #33a02c; stroke-width: 1.5; stroke-linecap: square"/>
   </g>
   <g id="line2d_3">
    <path d="M 26.967273 163.763051 
L 33.491125 167.872427 
L 38.710207 170.924102 
L 43.929289 173.769084 
L 50.453141 177.036069 
L 55.672223 179.42371 
L 62.196076 182.129853 
L 68.719928 184.534034 
L 75.24378 186.644272 
L 81.767633 188.468829 
L 88.291485 190.016564 
L 94.815338 191.296109 
L 101.33919 192.316228 
L 105.253501 192.807376 
L 106.558272 183.344014 
L 114.386895 178.484483 
L 122.215518 173.382727 
L 130.04414 168.047847 
L 139.177534 161.539147 
L 148.310927 154.736957 
L 157.44432 147.653732 
L 166.577714 140.30106 
L 177.015878 131.58461 
L 187.454041 122.552513 
L 197.892205 113.224052 
L 209.63514 102.401318 
L 221.378074 91.26392 
L 234.425779 78.565831 
L 248.778254 64.274421 
L 267.045041 45.74046 
L 290.530909 21.730909 
L 291.83568 70.715137 
L 333.588335 74.577753 
L 366.207597 77.699041 
L 385.779154 79.798791 
L 401.4364 81.690298 
L 414.484104 83.482372 
L 421.007957 84.53975 
L 422.312727 84.783266 
L 422.312727 84.783266 
" clip-path="url(#p51768de75e)" style="fill: none; stroke: #e31a1c; stroke-width: 1.5; stroke-linecap: square"/>
   </g>
   <g id="line2d_4"/>
   <g id="line2d_5"/>
   <g id="line2d_6"/>
   <g id="legend_1"/>
  </g>
 </g>
 <defs>
  <clipPath id="p51768de75e">
   <rect x="7.2" y="7.2" width="434.88" height="319.68"/>
  </clipPath>
 </defs>
</svg>
